<?xml version="1.0" encoding="UTF-8" standalone="no"?>
<!DOCTYPE svg PUBLIC "-//W3C//DTD SVG 20010904//EN"
"http://www.w3.org/TR/2001/REC-SVG-20010904/DTD/svg10.dtd">
<!-- Created with Sodipodi ("http://www.sodipodi.com/") -->
<svg
   xml:space="preserve"
   width="201.74mm"
   height="143.91mm"
   style="shape-rendering:geometricPrecision; text-rendering:geometricPrecision; image-rendering:optimizeQuality; fill-rule:evenodd; clip-rule:evenodd"
   viewBox="0 0 201.74 143.91"
   xmlns="http://www.w3.org/2000/svg"
   xmlns:xml="http://www.w3.org/XML/1998/namespace"
   xmlns:sodipodi="http://sodipodi.sourceforge.net/DTD/sodipodi-0.dtd"
   xmlns:xlink="http://www.w3.org/1999/xlink"
   id="svg559"
   sodipodi:version="0.33beta"
   sodipodi:docname="D:\Wikipedia\Botucatu\Bandeira.svg">
  <sodipodi:namedview
     id="base" />
  <defs
     id="defs560">
    <style
       type="text/css"
       id="style561">.str0 {stroke:#1F1A17;stroke-width:0.0762}
    .fil0 {fill:#28166F}
    .fil1 {fill:#FFF500}</style>
    <metadata
       id="CorelCorpID_0Corel-Layer"
       style="fill:none;stroke:#000000;stroke-opacity:1.0000;" />
  </defs>
  <g
     id="g580">
    <rect
       class="fil0 str0"
       width="201.74"
       height="143.91"
       id="rect564"
       style="font-size:12.000;fill:#00458f;stroke:none;fill-opacity:1.0000;" />
    <g
       id="g577">
      <path
         class="fil1"
         d="M98.6892 28.107c23.8158,0 43.1296,19.3138 43.1296,43.1296 0,11.1457 -4.2302,21.3055 -11.1723,28.9609 -16.7429,-2.5084 -30.0979,-19.6992 -27.768,-39.0217 -10.5817,0 -24.8853,-0.0171 -46.1386,0 4.5272,-18.9734 21.5914,-33.0688 41.9493,-33.0688z"
         id="path565"
         style="font-size:12.000;fill:#f3ee3f;stroke:none;" />
      <path
         class="fil1"
         d="M93.7997 71.2608c2.0612,13.7375 6.3805,26.4791 28.5867,36.1439 -6.7975,4.4747 -14.9189,7.068 -23.6637,7.068 -23.8157,0 -43.1295,-19.3962 -43.1295,-43.2119 16.1622,0 29.6551,0 38.2065,0z"
         id="path566"
         style="font-size:12.000;fill:#f3ee3f;stroke:none;" />
    </g>
  </g>
</svg>
